<svg xmlns="http://www.w3.org/2000/svg" width="900" height="1450" viewBox="0 0 900 1450"><style>
.coast{fill:none;stroke:#58727a;stroke-width:1.1}.border{fill:none;stroke:#777;stroke-width:1}.route{fill:none;stroke:#d95f02;stroke-width:4;stroke-linecap:round}.train,.bus{stroke-dasharray:12 9}.ferry{stroke-dasharray:3 8}.dot{fill:#d95f02;stroke:#fff;stroke-width:2}.num{font:700 10px sans-serif;fill:white}.labelhalo{font:700 12px sans-serif;fill:white;stroke:white;stroke-width:5;stroke-linejoin:round}.label{font:700 12px sans-serif;fill:#111}.title{font:700 28px sans-serif}.sub{font:14px sans-serif;fill:#333}.note{font:10px sans-serif;fill:#444}
</style><rect width="100%" height="100%" fill="#dfeff6"/><rect x="55" y="95" width="790" height="1300" fill="#eef0da" stroke="#444"/><text x="450" y="38" text-anchor="middle" class="title">Finland - Baltics - Poland</text><text x="450" y="62" text-anchor="middle" class="sub">28-day nature-first route · rail + rental cars + ferry · real geography</text><path class="coast" d="M55,1121 L119.7,1108.5 L84.7,1128.9 L156.8,1106.6 L120.5,1108.6 L123.7,1094.9 L167.5,1086.7 L203.3,1054.4 L163.8,1093 L214.6,1093.2 L196.2,1013.9 L245.9,959.4 L309.1,949.2 L380.3,991.2 L432.8,976.6 L446.1,919 L387.2,917.5 L371.1,869.3 L523.1,844.4 L677,859.7 L689.7,838 L845,829"/><path class="coast" d="M845,828.8 L726.1,806 L728.5,783.5 L328.8,837 L342.6,805 L302.9,814 L227,791.6 L252.8,739.5 L206.1,660 L510.1,516.5 L446.5,460.4 L311.2,456 L294.3,481.7 L249.2,466.8 L249.3,505.1 L213.6,495.5 L240.4,555 L174.9,597.1 L55,641.3"/><path class="coast" d="M55,201 L96.9,209.6 L55,176.9 M55,176.5 L108.7,161.1 L103.6,193.6 L148.1,147.4 L121.9,205.1 L213.8,144.7 L275,167.4 L236.5,118.7 L368.6,147.2 L418.5,95 M520.4,95 L485.4,140.2 L547.5,95 M582.7,95 L577.9,115.7 L628,95 M688.4,95 L672.8,109.9 L702.4,95 M833.2,95 L845,98.4 M845,134.8 L721.4,131.3 L786.1,174 L845,156.7"/><path class="coast" d="M671.2,759.9 L632.3,729 L687.9,740.2 L743.4,719.8 L631.5,680.9 L662.3,653.9 L606.3,610.1 L750,685.6 L679.4,662.2 L678.1,693.3 L774.3,699.8 L771.8,671.9 L818,682.1 L802.9,719.5 L703.4,747.5 L743,755.4 Z"/><path class="border" d="M683.6,140.1 L543.4,169.8 L468.5,261.4 L294.4,249.4 L219.7,200.7 L168.5,222 L382.3,308.6 L414.9,483.2 M201.2,1036.7 L271.5,1019.2 L467.9,1017.6 L586.7,1057 M555.3,1091.9 L528.3,1132.1 L371.1,1142.1 M639.2,961.1 L495.3,931.8 L427.1,943.3 M512.8,1237.6 L649,1250.9 M586.6,1057.1 L601,1076.8 L555.3,1091.9"/><path class="route train" d="M470.6,816.5 L525.4,414"/><path class="route road" d="M525.4,414 L775.7,423.3 L715.8,433.5 L610.9,373.2 L642.6,272.1 L615.5,234.2 L525.4,414"/><path class="route train" d="M525.4,414 L470.6,816.5"/><path class="route ferry" d="M470.6,816.5 L457.8,857.8"/><path class="route road" d="M457.8,857.8 L530.4,850.3 L440,915.6 L412.8,991.8 L464.6,979.8 L264.7,990.9 L207.5,1055.6"/><path class="route ferry" d="M207.5,1055.6 L198,1075.7"/><path class="route road" d="M198,1075.7 L398.8,1095.8 L470.3,1108.6 L494.2,1106.2"/><path class="route train" d="M494.2,1106.2 L198.3,1223.3 L124.3,1321.3"/><g class="stops"><circle cx="470.6" cy="816.5" r="9" class="dot"/><text x="470.6" y="819.5" class="num" text-anchor="middle">1</text><text x="481" y="805" class="labelhalo">Helsinki</text><text x="481" y="805" class="label">Helsinki</text><circle cx="525.4" cy="414" r="9" class="dot"/><text x="525.4" y="417" class="num" text-anchor="middle">2</text><text x="537" y="434" class="labelhalo">Rovaniemi</text><text x="537" y="434" class="label">Rovaniemi</text><circle cx="775.7" cy="423.3" r="9" class="dot"/><text x="775.7" y="426.3" class="num" text-anchor="middle">3</text><text x="764" y="413" class="labelhalo" text-anchor="end">Oulanka National Park</text><text x="764" y="413" class="label" text-anchor="end">Oulanka National Park</text><circle cx="715.8" cy="433.5" r="9" class="dot"/><text x="715.8" y="436.5" class="num" text-anchor="middle">4</text><text x="704" y="454" class="labelhalo" text-anchor="end">Riisitunturi National Park</text><text x="704" y="454" class="label" text-anchor="end">Riisitunturi National Park</text><circle cx="610.9" cy="373.2" r="9" class="dot"/><text x="610.9" y="376.2" class="num" text-anchor="middle">5</text><text x="623" y="363" class="labelhalo">Pyha-Luosto National Park</text><text x="623" y="363" class="label">Pyha-Luosto National Park</text><circle cx="642.6" cy="272.1" r="9" class="dot"/><text x="642.6" y="275.1" class="num" text-anchor="middle">6</text><text x="631" y="262" class="labelhalo" text-anchor="end">Saariselka</text><text x="631" y="262" class="label" text-anchor="end">Saariselka</text><circle cx="615.5" cy="234.2" r="9" class="dot"/><text x="615.5" y="237.2" class="num" text-anchor="middle">7</text><text x="628" y="224" class="labelhalo">Inari</text><text x="628" y="224" class="label">Inari</text><circle cx="457.8" cy="857.8" r="9" class="dot"/><text x="457.8" y="860.8" class="num" text-anchor="middle">8</text><text x="468" y="876" class="labelhalo">Tallinn</text><text x="468" y="876" class="label">Tallinn</text><circle cx="530.4" cy="850.3" r="9" class="dot"/><text x="530.4" y="853.3" class="num" text-anchor="middle">9</text><text x="518" y="840" class="labelhalo" text-anchor="end">Lahemaa National Park</text><text x="518" y="840" class="label" text-anchor="end">Lahemaa National Park</text><circle cx="440" cy="915.6" r="9" class="dot"/><text x="440" y="918.6" class="num" text-anchor="middle">10</text><text x="428" y="934" class="labelhalo" text-anchor="end">Parnu</text><text x="428" y="934" class="label" text-anchor="end">Parnu</text><circle cx="412.8" cy="991.8" r="9" class="dot"/><text x="412.8" y="994.8" class="num" text-anchor="middle">11</text><text x="425" y="1012" class="labelhalo">Riga</text><text x="425" y="1012" class="label">Riga</text><circle cx="464.6" cy="979.8" r="9" class="dot"/><text x="464.6" y="982.8" class="num" text-anchor="middle">12</text><text x="453" y="970" class="labelhalo" text-anchor="end">Gauja National Park</text><text x="453" y="970" class="label" text-anchor="end">Gauja National Park</text><circle cx="264.7" cy="990.9" r="9" class="dot"/><text x="264.7" y="993.9" class="num" text-anchor="middle">13</text><text x="253" y="1011" class="labelhalo" text-anchor="end">Kuldiga</text><text x="253" y="1011" class="label" text-anchor="end">Kuldiga</text><circle cx="207.5" cy="1055.6" r="9" class="dot"/><text x="207.5" y="1058.6" class="num" text-anchor="middle">14</text><text x="220" y="1076" class="labelhalo">Klaipeda</text><text x="220" y="1076" class="label">Klaipeda</text><circle cx="198" cy="1075.7" r="9" class="dot"/><text x="198" y="1078.7" class="num" text-anchor="middle">15</text><text x="186" y="1066" class="labelhalo" text-anchor="end">Nida</text><text x="186" y="1066" class="label" text-anchor="end">Nida</text><circle cx="398.8" cy="1095.8" r="9" class="dot"/><text x="398.8" y="1098.8" class="num" text-anchor="middle">16</text><text x="387" y="1114" class="labelhalo" text-anchor="end">Kaunas</text><text x="387" y="1114" class="label" text-anchor="end">Kaunas</text><circle cx="470.3" cy="1108.6" r="9" class="dot"/><text x="470.3" y="1111.6" class="num" text-anchor="middle">17</text><text x="482" y="1099" class="labelhalo">Trakai</text><text x="482" y="1099" class="label">Trakai</text><circle cx="494.2" cy="1106.2" r="9" class="dot"/><text x="494.2" y="1109.2" class="num" text-anchor="middle">18</text><text x="482" y="1126" class="labelhalo" text-anchor="end">Vilnius</text><text x="482" y="1126" class="label" text-anchor="end">Vilnius</text><circle cx="198.3" cy="1223.3" r="9" class="dot"/><text x="198.3" y="1226.3" class="num" text-anchor="middle">19</text><text x="210" y="1213" class="labelhalo">Warsaw</text><text x="210" y="1213" class="label">Warsaw</text><circle cx="124.3" cy="1321.3" r="9" class="dot"/><text x="124.3" y="1324.3" class="num" text-anchor="middle">20</text><text x="136" y="1341" class="labelhalo">Krakow</text><text x="136" y="1341" class="label">Krakow</text></g><g transform="translate(70,1368)"><line x1="0" y1="0" x2="42" y2="0" class="route"/><text x="50" y="4" class="note">road</text><line x1="120" y1="0" x2="162" y2="0" class="route train"/><text x="170" y="4" class="note">rail/bus</text><line x1="270" y1="0" x2="312" y2="0" class="route ferry"/><text x="320" y="4" class="note">ferry</text></g><text x="450" y="1425" text-anchor="middle" class="note">GSHHS/Basemap coastlines &amp; borders; WGS84 stops. Route lines are planning connectors, not turn-by-turn road geometry.</text></svg>